<svg width="37" height="33" viewBox="0 0 37 33" fill="none" xmlns="http://www.w3.org/2000/svg">
<g id="delete">
<ellipse id="Ellipse 62" opacity="0.05" cx="18.4535" cy="16.5" rx="18.3068" ry="16.5" fill="#FF0000"/>
<g id="Delete">
<path id="Delete_2" fill-rule="evenodd" clip-rule="evenodd" d="M26.4792 11.9186C26.8221 11.9186 27.1076 12.2093 27.1076 12.5792V12.9212C27.1076 13.2821 26.8221 13.5818 26.4792 13.5818H11.8709C11.5272 13.5818 11.2417 13.2821 11.2417 12.9212V12.5792C11.2417 12.2093 11.5272 11.9186 11.8709 11.9186H14.4409C14.963 11.9186 15.4173 11.5398 15.5348 11.0052L15.6694 10.3914C15.8785 9.55529 16.5669 9 17.3547 9H20.9946C21.7738 9 22.4699 9.55529 22.6714 10.3473L22.8154 11.0043C22.932 11.5398 23.3863 11.9186 23.9092 11.9186H26.4792ZM25.1722 24.4209C25.4406 21.8676 25.9103 15.8017 25.9103 15.7405C25.9275 15.5551 25.8683 15.3796 25.7509 15.2383C25.6249 15.106 25.4654 15.0277 25.2897 15.0277H13.0636C12.887 15.0277 12.719 15.106 12.6024 15.2383C12.4841 15.3796 12.4258 15.5551 12.4344 15.7405C12.436 15.7518 12.4529 15.9654 12.481 16.3227C12.6062 17.9096 12.9549 22.3294 13.1802 24.4209C13.3397 25.9616 14.3298 26.93 15.764 26.9651C16.8707 26.9912 18.0108 27.0002 19.1767 27.0002C20.2748 27.0002 21.3901 26.9912 22.5311 26.9651C24.015 26.939 25.0042 25.9877 25.1722 24.4209Z" fill="#FF0000"/>
</g>
</g>
</svg>
