<svg width="37" height="33" viewBox="0 0 37 33" fill="none" xmlns="http://www.w3.org/2000/svg">
<g id="edit">
<ellipse id="Ellipse 61" opacity="0.1" cx="18.3068" cy="16.5" rx="18.3068" ry="16.5" fill="#5D5FEF"/>
<g id="Edit">
<path id="Edit_2" fill-rule="evenodd" clip-rule="evenodd" d="M16.5974 23.136L24.1794 13.036C24.5914 12.4913 24.738 11.8616 24.6006 11.2205C24.4816 10.6376 24.1336 10.0834 23.6116 9.66293L22.3388 8.62139C21.2308 7.71363 19.8573 7.80919 19.0698 8.85072L18.2182 9.98877C18.1083 10.1311 18.1358 10.3414 18.2731 10.456C18.2731 10.456 20.425 12.2333 20.4708 12.2716C20.6173 12.4149 20.7272 12.606 20.7547 12.8353C20.8005 13.2844 20.4983 13.7049 20.0496 13.7622C19.839 13.7909 19.6375 13.724 19.491 13.5998L17.2293 11.746C17.1194 11.661 16.9545 11.6791 16.863 11.7938L11.4878 18.9603C11.1399 19.4094 11.0208 19.9923 11.1399 20.5561L11.8266 23.6234C11.8633 23.7858 12.0006 23.9005 12.1655 23.9005L15.1873 23.8622C15.7367 23.8527 16.2495 23.5947 16.5974 23.136ZM20.8289 22.1808H25.7563C26.237 22.1808 26.628 22.5888 26.628 23.0905C26.628 23.5931 26.237 24.0001 25.7563 24.0001H20.8289C20.3482 24.0001 19.9572 23.5931 19.9572 23.0905C19.9572 22.5888 20.3482 22.1808 20.8289 22.1808Z" fill="#5D5FEF"/>
</g>
</g>
</svg>
